# xmcd
#
# Track frame offsets: 
#        150
#        40921
#        76917
#        104660
#        161144
#        177380
#        182813
#        234060
#        267991
#
# Disc length: 4041 seconds
#
# Revision: 0
# Processed by: cddbd v1.5.2PL0 Copyright (c) Steve Scherf et al.
# Submitted via: ExactAudioCopy v1.0b1
#
DISCID=710fc709
DTITLE=Joascha Heifetz - Prokofiev ,Vieuxtemps and Rozsa Violin Concerto
DYEAR=2010
DGENRE=Classical
TTITLE0=Prokofiev: Violin Concerto No.2 in g minor. I.Allegro moderato
TTITLE1=Prokofiev: Violin Concerto No.2 in g minor. II.Andante assai
TTITLE2=Prokofiev: Violin Concerto No.2 in g minor. III.Allegro ben ma
TTITLE2=rcato
TTITLE3=Vieuxtemps - Violin Concerto #5 in A Minor - 1 Allegro Non Tro
TTITLE3=ppo
TTITLE4=Vieuxtemps - Violin Concerto #5 in A Minor - 2 Adagio
TTITLE5=Vieuxtemps - Violin Concerto #5 in A Minor - 3 Allegro con Fuo
TTITLE5=co
TTITLE6=Rozsa concert violin-Allegro non
TTITLE7=Rozsa concert violin-Lento cantabile
TTITLE8=Rozsa concert violin-Allegro vivace
EXTD=
EXTT0=
EXTT1=
EXTT2=
EXTT3=
EXTT4=
EXTT5=
EXTT6=
EXTT7=
EXTT8=
PLAYORDER=
